# xmcd CD database file
#
# Track frame offsets:
#	150
#	9222
#	30501
#	47780
#	65806
#	92202
#	118237
#	135797
#	166163
#	180231
#	197850
#	225213
#	239999
#
# Disc length: 3518 seconds
#
# Revision: 2
# Processed by: cddbd v1.5.2PL0 Copyright (c) Steve Scherf et al.
# Submitted via: CDex 1.70beta2
#
DISCID=a30dbc0d
DTITLE=Till Brönner - The Christmas Album
DYEAR=2007
DGENRE=Jazz
TTITLE0=We wish you a Merry Christmas
TTITLE1=White Christmas
TTITLE2=Santa Claus is coming to town
TTITLE3=Last Christmas
TTITLE4=Silent Night
TTITLE5=What are you doing new year's eve
TTITLE6=Better than Christmas
TTITLE7=Notes on snow
TTITLE8=Winter wonderland
TTITLE9=Moon river
TTITLE10=Nature boy
TTITLE11=Christmas is never
TTITLE12=Auld lang syne
EXTD=YEAR: 2007
EXTT0=
EXTT1=
EXTT2=
EXTT3=
EXTT4=
EXTT5=
EXTT6=
EXTT7=
EXTT8=
EXTT9=
EXTT10=
EXTT11=
EXTT12=
PLAYORDER=
